<svg xmlns="http://www.w3.org/2000/svg" viewBox="0 0 110.66 49.35"><defs><style>.cls-1{fill:#49bcc2;}</style></defs><g id="Capa_2" data-name="Capa 2"><g id="Capa_1-2" data-name="Capa 1"><path class="cls-1" d="M106.42,48.82c-12-12-31-21.69-51.13-21.61-18.7.07-36.49,5.62-53.74,21.64A.91.91,0,0,1,0,48.32V32a2,2,0,0,1,.7-1.65,1.54,1.54,0,0,1,.3-.22C34.06,12,72.88,17.3,100.85,41.8c.43.36,1-.34.57-.69a99.13,99.13,0,0,0-10.5-8.28A95,95,0,0,0,18.85,17.62a.38.38,0,0,1-.44-.37V9.72a.76.76,0,0,1,.68-.83c30.57-2.17,60.63,9,83.39,31,.38.37.89-.25.52-.61a113.34,113.34,0,0,0-14.1-12A114.43,114.43,0,0,0,38.43,6.36l-1-.13-.28-.05a.38.38,0,0,1-.32-.37V.42A.38.38,0,0,1,37.27,0C66.45,5.84,91.19,22,110,44.71c2.11,2.43-1.15,6-3.56,4.11"/></g></g></svg>